# xmcd CD database file
#
# Track frame offsets:
#	150
#	20187
#	38420
#	56155
#	72390
#	96725
#	112195
#	134017
#	155110
#	167920
#	189650
#	206060
#
# Disc length: 2912 seconds
#
# Revision: 1
# Processed by: cddbd v1.5.2PL0 Copyright (c) Steve Scherf et al.
# Submitted via: jetAudio 7
#
DISCID=c30b5e0c
DTITLE=渡辺雄一 - Melody for You
DYEAR=2004
DGENRE=New Age
TTITLE0=Ｗｉｎｔｅｒ　Ｐｉａｎｏ
TTITLE1=Ｗａｌｔｚ　Ｎｏｃｔｕｒｎｅ
TTITLE2=Ｍｙ　ｍｅｌｏｄｙ　ｆｏｒ　ｙｏｕ～メロデ
TTITLE2=ィの贈りもの～
TTITLE3=七色の翼（ＮＨＫ月曜ドラマ「愛の家～泣き虫
TTITLE3=サトと７人の子」テーマ曲）
TTITLE4=Ｌａ　Ｒｏｓａ
TTITLE5=Ｓｎｏｗ　Ｄａｎｃｅ
TTITLE6=Ａｄｖｅｎｔｕｒｅ　Ｓｐｉｒｉｔｓ
TTITLE7=風にゆれる花
TTITLE8=星空の散歩（映画「ムーンライトジェリーフィ
TTITLE8=ッシュ」挿入曲）
TTITLE9=Ｓｉｌｅｎｔ　Ｌｏｖｅ
TTITLE10=Ｏｌｄ　ｄａｙｓ　Ｄｒｅａｍ
TTITLE11=Ｂｅａｕｔｉｆｕｌ　Ｓｃｅｎｅ
EXTD=YEAR: 2004
EXTT0=
EXTT1=
EXTT2=
EXTT3=
EXTT4=
EXTT5=
EXTT6=
EXTT7=
EXTT8=
EXTT9=
EXTT10=
EXTT11=
PLAYORDER=
